<?xml version="1.0" encoding="utf-8"?>
<!-- Svg Vector Icons : http://www.onlinewebfonts.com/icon -->
<!DOCTYPE svg PUBLIC "-//W3C//DTD SVG 1.1//EN" "http://www.w3.org/Graphics/SVG/1.1/DTD/svg11.dtd">
<svg version="1.1" xmlns="http://www.w3.org/2000/svg" xmlns:xlink="http://www.w3.org/1999/xlink" x="0px" y="0px" viewBox="0 0 1000 1000" enable-background="new 0 0 1000 1000" xml:space="preserve">
<metadata> Svg Vector Icons : http://www.onlinewebfonts.com/icon </metadata>
<g><path d="M239,208.7l390.7-106.6L609,60.2c-13.5-27.2-46.6-38.4-73.7-24.9L185.5,208.7H239z"/><path d="M751,105.1c-4.8,0-9.7,0.7-14.5,2l-91.8,25.1l-280.3,76.5h318.2h138.7L804,145.8C797.4,121.2,775.2,105.1,751,105.1z"/><path d="M878.5,247.2H866h-17.1h-17.1H701.7H223.3h-62.7h-52.8h-9.8H65.1c-17.4,0-32.9,8-43,20.7c-4.6,5.8-8.1,12.5-10.1,19.9c-1.2,4.6-2,9.5-2,14.4v6.6v62.7v543.8c0,30.4,24.7,55,55,55h813.4c30.4,0,55-24.7,55-55V761.8H606.9c-51.6,0-93.5-41.9-93.5-93.5v-50.4v-17.1v-17.1v-37.9c0-25.3,10.1-48.3,26.5-65.1c14.5-15,34-25.1,55.8-27.6c3.6-0.4,7.4-0.7,11.1-0.7h280.8h17.1h17.1h11.7V302.2C933.5,271.9,908.9,247.2,878.5,247.2z"/><path d="M972.1,505.1c-5.5-5.1-12-8.9-19.3-11.4c-5.6-1.9-11.6-3-17.8-3h-1.4h-1.1h-17.1h-61.5h-247c-30.4,0-55,24.7-55,55v27.4v17.1v17.1v61c0,30.4,24.7,55,55,55h326.6h1.4c6.3,0,12.2-1.1,17.8-3c7.3-2.4,13.8-6.4,19.3-11.4c11-10,17.9-24.5,17.9-40.6V545.7C990,529.6,983.1,515.1,972.1,505.1z M721.8,617.9c0,15.2-12.3,27.5-27.5,27.5H676c-15.2,0-27.5-12.3-27.5-27.5v-18.3c0-8.8,4.1-16.6,10.6-21.6c4.7-3.6,10.6-5.9,16.9-5.9h4.6h13.6c15.2,0,27.5,12.3,27.5,27.5V617.9L721.8,617.9z"/></g>
</svg>