<?xml version="1.0" encoding="utf-8"?>
<!-- Svg Vector Icons : http://www.onlinewebfonts.com/icon -->
<!DOCTYPE svg PUBLIC "-//W3C//DTD SVG 1.1//EN" "http://www.w3.org/Graphics/SVG/1.1/DTD/svg11.dtd">
<svg version="1.1" xmlns="http://www.w3.org/2000/svg" xmlns:xlink="http://www.w3.org/1999/xlink" x="0px" y="0px" viewBox="0 0 1000 1000" enable-background="new 0 0 1000 1000" xml:space="preserve">
<metadata> Svg Vector Icons : http://www.onlinewebfonts.com/icon </metadata>
<g><path d="M445.2,33.1C460.6,17.7,478.9,10,500,10c21.1,0,39.4,7.7,54.8,23.1l412.1,412.1c15.4,15.4,23.1,33.7,23.1,54.8c0,21.1-7.7,39.4-23.1,54.8L554.8,966.9C539.4,982.3,521.1,990,500,990c-21.1,0-39.4-7.7-54.8-23.1L33.1,554.8C17.7,539.4,10,521.1,10,500c0-21.1,7.7-39.4,23.1-54.8L445.2,33.1z M109.2,482.3c-14.6,12.2-14,24.6,1.8,37.1c8.9,7.3,18.8,15.1,29.5,23.4c10.8,8.3,21.7,17,32.9,26.2c11.2,9.1,22.1,17.9,32.9,26.2c10.8,8.3,20.2,15.7,28.3,22.2c8.5,6.9,15.3,9,20.4,6.4c5.1-2.6,7.6-8.8,7.6-18.6c0-6.5,0.1-14.1,0.3-22.8s0.3-15.9,0.3-21.6c0-7.3,3-12,9.1-14s14.4-3,25-3c15.4,0,28.4-0.2,39-0.6c10.6-0.4,21.5-0.6,32.9-0.6c11.8,0.4,20.5-0.8,26.2-3.7c5.7-2.8,8.7-10.1,9.1-21.9c-0.4-8.5-0.6-14.4-0.6-17.7v-15.8c-0.4-12.6-4.3-20.5-11.6-23.7c-7.3-3.2-14.6-4.9-21.9-4.9c-16.2,0-30.1,0.3-41.7,0.9c-11.6,0.6-25.3,0.7-41.1,0.3c-7.3,0-13.1-0.9-17.3-2.7c-4.3-1.8-6.4-6.4-6.4-13.7c0-6.5-0.2-14-0.6-22.5s-0.6-16-0.6-22.5c0-9.7-3.1-15.5-9.4-17.3c-6.3-1.8-14.1,1.1-23.4,8.8c-8.9,7.3-18.7,15.2-29.2,23.7c-10.6,8.5-21.2,16.9-32,25.3c-10.8,8.3-21.3,16.6-31.7,25C126.6,468.4,117.3,475.9,109.2,482.3L109.2,482.3z M544.4,630.3c0-12.2-2-21.1-6.1-26.8c-4.1-5.7-12.2-8.5-24.3-8.5c-8.5,0.4-14.4,0.6-17.7,0.6h-15.8c-12.2,0-19.4,3.8-21.6,11.3c-2.2,7.5-3.6,14.7-4,21.6c0.4,16.6,0.7,31.6,0.9,44.7c0.2,13.2,0.3,27.9,0.3,44.1c0,7.3-0.9,12.3-2.7,14.9c-1.8,2.6-6.2,4.2-13.1,4.6c-6.5,0-14.6,0.2-24.3,0.6c-9.7,0.4-17.7,0.4-23.7,0c-10.1,0.4-16.1,3.8-18,10c-1.8,6.3,1.1,14.1,8.8,23.4c7.3,8.9,15.2,18.7,23.7,29.2c8.5,10.6,17,21.3,25.6,32.3s16.8,21.5,25,31.7c8.1,10.1,15.6,19.1,22.5,26.8c12.2,14.6,24.3,14.2,36.5-1.2c7.3-8.9,15.2-18.9,23.7-29.8c8.5-11,17.2-21.9,26.2-32.9s17.5-21.8,25.9-32.6c8.3-10.8,15.9-20.4,22.8-28.9c6.5-8.1,8.4-14.7,5.8-19.8c-2.6-5.1-8.8-7.6-18.6-7.6c-6.1-0.4-12.9-0.7-20.4-0.9c-7.5-0.2-14.1-0.3-19.8-0.3c-7.3,0-12-2.2-14-6.7c-2-4.5-3-12-3-22.5c0-15.4-0.1-29.3-0.3-41.7C544.5,653.5,544.4,641.6,544.4,630.3L544.4,630.3z M892.6,519.5c14.6-12.2,14-24.6-1.8-37.1c-8.5-6.9-18.3-14.6-29.2-23.1c-11-8.5-22-17.3-33.2-26.5c-11.2-9.1-22.1-17.9-32.9-26.2c-10.8-8.3-20.2-15.7-28.3-22.2c-8.5-6.9-15.3-9-20.4-6.4c-5.1,2.6-7.6,8.8-7.6,18.6c-0.4,6.1-0.7,12.9-0.9,20.4c-0.2,7.5-0.3,14.1-0.3,19.8c0,7.3-2.9,12.1-8.8,14.3c-5.9,2.2-14.3,3.1-25.3,2.7c-15,0.4-28.7,0.7-41.1,0.9c-12.4,0.2-24.2,0.3-35.6,0.3c-12.2,0-21.1,2-26.8,6.1c-5.7,4.1-8.3,12-7.9,23.7c-0.4,8.5-0.5,14.3-0.3,17.3c0.2,3,0.5,8.4,0.9,16.1c-0.4,12.6,3.1,20,10.7,22.2c7.5,2.2,14.9,3.3,22.2,3.3c16.2,0,30.9-0.1,44.1-0.3c13.2-0.2,27.9-0.3,44.1-0.3c7.3,0,13.1,0.9,17.3,2.7s6.4,6,6.4,12.5c0,6.5,0.2,14.6,0.6,24.3s0.6,17.9,0.6,24.3c-0.4,10.1,2.6,16,9.1,17.7c6.5,1.6,14.4-1.4,23.7-9.1c8.9-7.3,18.7-15.2,29.2-23.7c10.6-8.5,21.2-16.9,32-25.3c10.8-8.3,21.3-16.6,31.7-25C875.3,533.4,884.5,526,892.6,519.5L892.6,519.5z M518.3,108.6c-6.5-8.1-12.8-12-18.9-11.6c-6.1,0.4-12.4,4.7-18.9,12.8c-7.3,8.9-15.1,18.8-23.4,29.5c-8.3,10.8-17,21.7-26.2,32.9c-9.1,11.2-17.9,22.1-26.2,32.9c-8.3,10.8-15.7,20.2-22.2,28.3c-6.9,8.5-8.9,15.4-6.1,20.7c2.8,5.3,9.1,7.9,18.9,7.9c6.1-0.4,13.4-0.4,21.9,0c8.5,0.4,15.4,0.4,20.7,0c7.3,0,12,3,14,9.1s3.2,14.6,3.7,25.6c-0.4,15-0.5,28.3-0.3,39.9c0.2,11.6,0.3,23,0.3,34.4c0.4,11.8,2.2,20.5,5.5,26.2c3.2,5.7,10.6,8.5,21.9,8.5c8.5,0.4,14.4,0.4,17.7,0s8.5-0.6,15.8-0.6c13,0,21-3.8,24-11.3c3-7.5,4.8-14.7,5.2-21.6c-0.4-16.6-0.8-31-1.2-43.2c-0.4-12.2-0.6-26.4-0.6-42.6c0-7.3,1-13,3-17s6.5-6.3,13.4-6.7c6.5,0,14-0.2,22.5-0.6c8.5-0.4,16-0.6,22.5-0.6c10.1,0.4,16.1-2.5,18-8.8c1.8-6.3-1.3-14.3-9.4-24c-7.3-8.9-15.2-18.7-23.7-29.2c-8.5-10.6-16.9-21.2-25.3-32c-8.3-10.8-16.3-21.2-24-31.3L518.3,108.6z"/></g>
</svg>