<?xml version="1.0" encoding="utf-8"?>
<!-- Svg Vector Icons : http://www.onlinewebfonts.com/icon -->
<!DOCTYPE svg PUBLIC "-//W3C//DTD SVG 1.1//EN" "http://www.w3.org/Graphics/SVG/1.1/DTD/svg11.dtd">
<svg version="1.1" xmlns="http://www.w3.org/2000/svg" xmlns:xlink="http://www.w3.org/1999/xlink" x="0px" y="0px" viewBox="0 0 1000 1000" enable-background="new 0 0 1000 1000" xml:space="preserve">
<metadata> Svg Vector Icons : http://www.onlinewebfonts.com/icon </metadata>
<g><path d="M295.5,618.7c0.5,14.7,12.4,25.8,26.9,25.8c14.7,0,26.6-10.9,26.9-25.8h0.1c8-82.6,72.1-139.5,150.1-139.5c28.7,0,55.5,7.6,78.3,21.8l0.1-0.9c4.8,4.5,11.1,7.4,18.2,7.4c14.9,0,27-12.4,27-27.6c0-9.7-4.9-18.1-12.2-23l0.3-0.4c-6.9-4.6-14.1-8.7-21.6-12.5c30.6-26.3,50.1-65.7,50.1-109.8c0-79.2-62.7-143.4-140.2-143.4c-77.4,0-140.2,64.2-140.2,143.4c0,44,19.5,84.9,50,111.2c-63.2,31.8-108,90.4-113.9,172.8c0-0.3,0-0.8,0-0.7c0,0.3,0,0.5,0,0.8C295.5,618.5,295.5,618.6,295.5,618.7L295.5,618.7z M499.6,246c47.6,0,86.2,39.5,86.2,88.3c0,48.7-38.6,88.2-86.2,88.2c-47.7,0-86.3-39.5-86.3-88.2C413.3,285.5,451.9,246,499.6,246z M566.3,605c-1.4,3.3,1.3,6.5,4.5,5.1c3.2-1.4,63.7-27.1,63.7-27.1s132-135,142.9-146.1c10.9-11.2,5.5-25.5,0-30.9c-5.5-5.3-5.5-5.2-12-11.6c-6.6-6.3-20.8-7.8-29.5,1.2c-8.8,9-143.1,147.1-143.1,147.1S567.6,601.7,566.3,605z M677.5,588c-7.1,0-14.1,3-19.1,8.1c-5,5.1-7.9,12.3-7.9,19.5c0,7.2,2.9,14.4,7.9,19.5c5,5.1,12,8.1,19.1,8.1c7,0,14.1-3,19-8.1c5-5.1,7.9-12.3,7.9-19.5c0-7.2-2.9-14.4-7.9-19.5C691.6,590.9,684.6,588,677.5,588z M906.4,65.3H93.6c-46.2,0-83.6,38.9-83.6,86.9v536.7c0,48.1,42.9,89.1,89.1,89.1h356.4h22.3v89.1h-245v2.3c-12.6,4.9-21.6,17.1-21.6,31.5c0,14.3,9,26.6,21.6,31.5v1.6h5.3c2.2,0.5,4.5,0.7,6.8,0.7c2.3,0,4.6-0.2,6.8-0.7h515.5v-0.8c3.2,1,6.6,1.5,10.1,1.5c18.6,0,33.8-15.1,33.8-33.8c0-18.6-15.1-33.8-33.8-33.8c-3.5,0-6.9,0.5-10.1,1.5v-1.5H544.5v-89.1h89.1h267.3c46.2,0,89.1-41,89.1-89.1V152.2C990,104.2,952.6,65.3,906.4,65.3z M923.2,711.2l-264.5-0.4l0-0.1l-27.4,0l-14.4,0l0,0l-540,0.4V132.1h846.4V711.2z"/></g>
</svg>