<?xml version="1.0" encoding="utf-8"?>
<!-- Svg Vector Icons : http://www.onlinewebfonts.com/icon -->
<!DOCTYPE svg PUBLIC "-//W3C//DTD SVG 1.1//EN" "http://www.w3.org/Graphics/SVG/1.1/DTD/svg11.dtd">
<svg version="1.1" xmlns="http://www.w3.org/2000/svg" xmlns:xlink="http://www.w3.org/1999/xlink" x="0px" y="0px" viewBox="0 0 1000 1000" enable-background="new 0 0 1000 1000" xml:space="preserve">
<metadata> Svg Vector Icons : http://www.onlinewebfonts.com/icon </metadata>
<g><path d="M284,720.5V462.3L735.3,24.4c9.3-9.3,21.5-14.4,34.4-14.4s25.1,5.1,34.3,14.3l171.7,172.8c19,19.1,18.9,50.1,0,69.1L540.4,720.5H284z M381.2,504v118.5h117.9l374-390.2l-104-104.6L381.2,504z"/><path d="M58.7,990C31.8,990,10,968,10,941V59c0-27,21.8-49,48.7-49h258.7c26.8,0,48.6,22,48.6,49s-21.8,49-48.6,49H149.9c-23.5,0-42.7,19.3-42.7,42.9v698.3c0,23.6,19.1,42.9,42.7,42.9h700.1c23.5,0,42.7-19.3,42.7-42.9V671.5c0-27,21.8-49,48.7-49c26.8,0,48.6,22,48.6,49V941c0,27-21.8,49-48.6,49H58.7z"/></g>
</svg>